<svg xmlns="http://www.w3.org/2000/svg" width="117.053" height="15" viewBox="0 0 117.053 15">
  <g id="Grupo_10" data-name="Grupo 10" transform="translate(-60 -121)">
    <path id="ic_star_24px" d="M9.895,14.055,14.774,17l-1.295-5.55,4.311-3.734-5.676-.482L9.895,2,7.676,7.234,2,7.716,6.311,11.45,5.016,17Z" transform="translate(58 119)" fill="#ff9733"/>
    <path id="ic_star_24px-2" data-name="ic_star_24px" d="M9.895,14.055,14.774,17l-1.295-5.55,4.311-3.734-5.676-.482L9.895,2,7.676,7.234,2,7.716,6.311,11.45,5.016,17Z" transform="translate(83.316 119)" fill="#ff9733"/>
    <path id="ic_star_24px-3" data-name="ic_star_24px" d="M9.895,14.055,14.774,17l-1.295-5.55,4.311-3.734-5.676-.482L9.895,2,7.676,7.234,2,7.716,6.311,11.45,5.016,17Z" transform="translate(108.632 119)" fill="#ff9733"/>
    <path id="ic_star_24px-4" data-name="ic_star_24px" d="M9.895,14.055,14.774,17l-1.295-5.55,4.311-3.734-5.676-.482L9.895,2,7.676,7.234,2,7.716,6.311,11.45,5.016,17Z" transform="translate(133.947 119)" fill="#ff9733"/>
    <path id="ic_star_24px-5" data-name="ic_star_24px" d="M9.895,14.055,14.774,17l-1.295-5.55,4.311-3.734-5.676-.482L9.895,2,7.676,7.234,2,7.716,6.311,11.45,5.016,17Z" transform="translate(159.263 119)" fill="#ff9733"/>
  </g>
</svg>
