<svg xmlns="http://www.w3.org/2000/svg" width="40.025" height="40.025" viewBox="0 0 40.025 40.025">
  <path id="ic_extension_24px" d="M37.26,20.059H34.4V12.436a3.823,3.823,0,0,0-3.812-3.812H22.965V5.765a4.765,4.765,0,1,0-9.53,0V8.624H5.812a3.807,3.807,0,0,0-3.793,3.812v7.243h2.84a5.146,5.146,0,0,1,0,10.292H2v7.243a3.823,3.823,0,0,0,3.812,3.812h7.243V38.166a5.146,5.146,0,1,1,10.292,0v2.859h7.243A3.823,3.823,0,0,0,34.4,37.213V29.589H37.26a4.765,4.765,0,0,0,0-9.53Z" transform="translate(-2 -1)" fill="#fff"/>
</svg>
